<?xml version="1.0" encoding="utf-8"?>
<!-- Generator: Adobe Illustrator 17.0.0, SVG Export Plug-In . SVG Version: 6.00 Build 0)  -->
<!DOCTYPE svg PUBLIC "-//W3C//DTD SVG 1.1//EN" "http://www.w3.org/Graphics/SVG/1.1/DTD/svg11.dtd" [
	<!ENTITY st0 "fill:#1A1A18;">
	<!ENTITY st1 "fill:none;stroke:#FBC012;stroke-width:2.5865;stroke-miterlimit:10;">
	<!ENTITY st2 "fill:#1A1A18;stroke:#FBC012;stroke-width:3.2877;stroke-miterlimit:10;">
	<!ENTITY st3 "fill:none;stroke:#FBC012;stroke-width:3.3157;stroke-miterlimit:10;">
	<!ENTITY st4 "fill:#908083;stroke:#4E373C;stroke-width:3.2877;stroke-miterlimit:10;">
	<!ENTITY st5 "fill:#1A1A18;stroke:#FBC012;stroke-width:3.1749;stroke-miterlimit:10;">
	<!ENTITY st6 "fill:#1A1A18;stroke:#FBC012;stroke-width:4.7186;stroke-miterlimit:10;">
	<!ENTITY st7 "fill:#FBC012;">
	<!ENTITY st8 "fill:none;stroke:#FBC012;stroke-width:4.7186;stroke-miterlimit:10;">
	<!ENTITY st9 "fill:#FBC012;stroke:#FBC012;stroke-width:3.2877;stroke-miterlimit:10;">
	<!ENTITY st10 "fill:#FBC012;stroke:#FBC012;stroke-width:10.0921;stroke-miterlimit:10;">
	<!ENTITY st11 "fill:#FBC012;stroke:#FBC012;stroke-width:10.0663;stroke-miterlimit:10;">
	<!ENTITY st12 "fill:#948689;stroke:#B0ADAD;stroke-width:5.9769;stroke-miterlimit:10;">
	<!ENTITY st13 "fill:#908083;stroke:#FBC012;stroke-width:5.9769;stroke-miterlimit:10;">
	<!ENTITY st14 "fill:#908083;stroke:#4E373C;stroke-width:5.9769;stroke-miterlimit:10;">
	<!ENTITY st15 "fill:#1A1A18;stroke:#FBC012;stroke-width:3.3157;stroke-miterlimit:10;">
	<!ENTITY st16 "fill:#1A1A18;stroke:#FBC012;stroke-width:6.2914;stroke-miterlimit:10;">
	<!ENTITY st17 "fill:#908083;stroke:#FBC012;stroke-width:9.4371;stroke-miterlimit:10;">
	<!ENTITY st18 "fill:#908083;stroke:#FBC012;stroke-width:3.6599;stroke-miterlimit:10;">
	<!ENTITY st19 "fill:#FBC012;stroke:#FBC012;stroke-width:7.8643;stroke-miterlimit:10;">
	<!ENTITY st20 "fill:none;stroke:#FBC012;stroke-width:3.1905;stroke-miterlimit:10;">
	<!ENTITY st21 "fill:none;">
	<!ENTITY st22 "fill:none;stroke:#FBC012;stroke-width:2;stroke-miterlimit:10;">
]>
<svg version="1.1" id="Layer_1" xmlns="http://www.w3.org/2000/svg" xmlns:xlink="http://www.w3.org/1999/xlink" x="0px" y="0px"
	 width="612px" height="609.08px" viewBox="0 0 612 609.08" style="enable-background:new 0 0 612 609.08;" xml:space="preserve">
<circle style="&st0;" cx="305.959" cy="303.449" r="299.419"/>
<g>
	<circle style="&st1;" cx="305.959" cy="303.449" r="278.46"/>
</g>
<g>
	<g>
		<path style="&st2;" d="M446.172,371.204c0,3.475-2.817,6.291-6.291,6.291h-29.622c-3.475,0-6.291-2.817-6.291-6.291V304.21
			c0-3.475,2.817-6.291,6.291-6.291h29.622c3.475,0,6.291,2.817,6.291,6.291V371.204z"/>
		<g>
			<path style="&st3;" d="M221.04,218.991l-44.052-34.683c-6.02-4.74-6.328-14.391-0.687-21.555l0,0
				c5.641-7.165,15.094-9.131,21.115-4.391"/>
			<line style="&st3;" x1="187.83" y1="155.778" x2="206.311" y2="155.778"/>
		</g>
		<g>
			<g>
				<path style="&st2;" d="M424.162,300.236v74.302c0,7.172-5.631,12.992-12.583,12.992h-48.916
					c-1.258,1.321-3.083,2.139-5.128,2.139h-180.47V215.081h180.47c3.775,0,6.858,2.831,6.858,6.291v65.871h47.186
					C418.531,287.244,424.162,293.063,424.162,300.236z"/>
				<path style="&st4;" d="M177.066,215.081v174.587H76.152c-0.66,0-1.321-0.094-1.919-0.283c-0.598-0.157-1.164-0.409-1.667-0.786
					c-1.699-1.132-2.831-3.051-2.831-5.222V221.373c0-1.29,0.409-2.517,1.101-3.523c0.22-0.346,0.472-0.629,0.786-0.912
					c0.283-0.283,0.598-0.566,0.944-0.786c0.503-0.377,1.069-0.629,1.667-0.786c0.598-0.189,1.258-0.283,1.919-0.283H177.066z"/>
				<path style="&st5;" d="M177.082,389.668H76.143c-3.539,0-6.409-2.817-6.409-6.291V221.373c0-3.475,2.869-6.291,6.409-6.291
					h100.939"/>
				<path style="&st6;" d="M141.693,318.497c0,6.949-5.634,12.583-12.583,12.583h-15.335c-6.949,0-12.583-5.634-12.583-12.583
					v-62.521c0-6.949,5.634-12.583,12.583-12.583h15.335c6.949,0,12.583,5.634,12.583,12.583V318.497z"/>
				<rect x="153.883" y="243.393" style="&st7;" width="13.762" height="90.046"/>
				<rect x="98.438" y="339.731" style="&st7;" width="47.187" height="18.48"/>
				<polyline style="&st8;" points="177.082,367.648 85.463,367.648 85.463,229.237 177.082,229.237 				"/>
			</g>
		</g>
		<line style="&st9;" x1="364.394" y1="287.244" x2="177.066" y2="287.244"/>
		<line style="&st9;" x1="301.928" y1="215.081" x2="301.928" y2="287.236"/>
		<line style="&st9;" x1="364.394" y1="254.796" x2="300.614" y2="254.796"/>
		<circle style="&st7;" cx="316.87" cy="273.594" r="7.274"/>
		<circle style="&st7;" cx="335.351" cy="273.594" r="7.274"/>
		<line style="&st10;" x1="206.18" y1="254.056" x2="206.18" y2="226.288"/>
		<line style="&st11;" x1="243.929" y1="245.296" x2="243.929" y2="226.288"/>
		<line style="&st11;" x1="259.657" y1="245.296" x2="259.657" y2="226.288"/>
		<line style="&st12;" x1="264.443" y1="270.936" x2="239.733" y2="270.936"/>
		<line style="&st12;" x1="264.443" y1="258.073" x2="239.733" y2="258.073"/>
		<line style="&st12;" x1="233.246" y1="270.066" x2="201.96" y2="270.066"/>
		<line style="&st13;" x1="233.246" y1="266.92" x2="201.96" y2="266.92"/>
		<line style="&st14;" x1="264.443" y1="266.92" x2="239.733" y2="266.92"/>
		<line style="&st14;" x1="264.443" y1="254.056" x2="239.733" y2="254.056"/>
		<rect x="220.86" y="194.503" style="&st7;" width="37.617" height="7.602"/>
		<polygon style="&st15;" points="332.496,150.059 332.496,179.943 316.862,179.943 316.862,163.963 194.525,163.963 
			194.525,150.059 		"/>
		<rect x="208.146" y="201.319" style="&st15;" width="69.992" height="13.762"/>
		<rect x="364.394" y="226.288" style="&st2;" width="15.194" height="13.369"/>
		<path style="&st7;" d="M460.998,232.288c0,11.356-8.997,20.542-20.07,20.542h-61.341v-41.083h61.341
			C452.002,211.747,460.998,220.932,460.998,232.288z"/>
		<line style="&st4;" x1="514.329" y1="385.212" x2="514.329" y2="290.316"/>
		<polygon style="&st2;" points="514.329,385.212 551.291,385.212 551.291,290.316 514.329,290.316 506.202,304.21 446.172,304.21 
			446.172,373.153 506.202,373.153 		"/>
		<line style="&st16;" x1="456.068" y1="304.21" x2="456.068" y2="373.153"/>
		<line style="&st17;" x1="471.806" y1="304.21" x2="471.806" y2="373.153"/>
		<polygon style="&st7;" points="503.646,373.153 506.202,373.153 509.938,378.696 509.938,297.823 506.202,304.21 503.646,304.21 
					"/>
		<line style="&st18;" x1="514.329" y1="291.823" x2="514.329" y2="385.148"/>
		<line style="&st19;" x1="526.256" y1="291.044" x2="526.256" y2="384.369"/>
		<g>
			<rect x="481.918" y="312.025" style="&st7;" width="3.146" height="2.949"/>
			<rect x="488.209" y="312.025" style="&st7;" width="3.146" height="2.949"/>
			<rect x="494.501" y="312.025" style="&st7;" width="3.146" height="2.949"/>
			<rect x="481.918" y="318.186" style="&st7;" width="3.146" height="2.949"/>
			<rect x="488.209" y="318.186" style="&st7;" width="3.146" height="2.949"/>
			<rect x="494.501" y="318.186" style="&st7;" width="3.146" height="2.949"/>
			<rect x="481.918" y="324.412" style="&st7;" width="3.146" height="2.949"/>
			<rect x="488.209" y="324.412" style="&st7;" width="3.146" height="2.949"/>
			<rect x="494.501" y="324.412" style="&st7;" width="3.146" height="2.949"/>
			<rect x="481.918" y="330.9" style="&st7;" width="3.146" height="2.949"/>
			<rect x="488.209" y="330.9" style="&st7;" width="3.146" height="2.949"/>
			<rect x="494.501" y="330.9" style="&st7;" width="3.146" height="2.949"/>
			<rect x="481.918" y="337.232" style="&st7;" width="3.146" height="2.949"/>
			<rect x="488.209" y="337.232" style="&st7;" width="3.146" height="2.949"/>
			<rect x="494.501" y="337.232" style="&st7;" width="3.146" height="2.949"/>
			<rect x="481.918" y="343.483" style="&st7;" width="3.146" height="2.949"/>
			<rect x="488.209" y="343.483" style="&st7;" width="3.146" height="2.949"/>
			<rect x="494.501" y="343.483" style="&st7;" width="3.146" height="2.949"/>
			<rect x="481.918" y="349.774" style="&st7;" width="3.146" height="2.949"/>
			<rect x="488.209" y="349.774" style="&st7;" width="3.146" height="2.949"/>
			<rect x="494.501" y="349.774" style="&st7;" width="3.146" height="2.949"/>
			<rect x="481.918" y="356" style="&st7;" width="3.146" height="2.949"/>
			<rect x="488.209" y="356" style="&st7;" width="3.146" height="2.949"/>
			<rect x="494.501" y="356" style="&st7;" width="3.146" height="2.949"/>
			<rect x="481.918" y="362.16" style="&st7;" width="3.146" height="2.949"/>
			<rect x="488.209" y="362.16" style="&st7;" width="3.146" height="2.949"/>
			<rect x="494.501" y="362.16" style="&st7;" width="3.146" height="2.949"/>
		</g>
		<path style="&st7;" d="M367.791,287.671v45.372c0,8.788-7.046,15.92-15.729,15.92H234.381c-8.682,0-15.729-7.132-15.729-15.92
			v-45.372H367.791z"/>
	</g>
	<line style="&st20;" x1="177.891" y1="213.464" x2="177.891" y2="391.256"/>
	<rect x="201.96" y="263.916" style="&st7;" width="31.286" height="9.06"/>
	<rect x="239.672" y="251.159" style="&st7;" width="24.77" height="9.926"/>
	<rect x="239.703" y="263.916" style="&st7;" width="24.77" height="9.926"/>
</g>
<g>
	<rect x="114.928" y="424.562" style="&st21;" width="390.189" height="44.965"/>
	<path style="&st7;" d="M114.07,454.318l5.951-7.094c3.618,2.762,7.76,3.904,11.664,3.904c2,0,2.856-0.523,2.856-1.428v-0.096
		c0-0.952-1.047-1.476-4.618-2.189c-7.474-1.523-14.044-3.666-14.044-10.712v-0.096c0-6.331,4.951-11.235,14.14-11.235
		c6.427,0,11.188,1.523,15.044,4.57l-5.428,7.522c-3.142-2.285-6.903-3.285-9.997-3.285c-1.667,0-2.428,0.571-2.428,1.381v0.095
		c0,0.904,0.905,1.477,4.427,2.143c8.522,1.571,14.235,4.047,14.235,10.76v0.095c0,6.998-5.76,11.283-14.71,11.283
		C124.401,459.937,118.307,458.032,114.07,454.318z"/>
	<path style="&st7;" d="M148.444,425.992h28.422v9.141h-17.472v3.38h16.282v8.046h-16.282v3.618h17.71v9.141h-28.66V425.992z"/>
	<path style="&st7;" d="M191.721,425.754h11.045l14.044,33.563h-12.093l-1.761-4.476h-11.664l-1.714,4.476h-11.902L191.721,425.754z
		 M200.195,446.939l-3.047-8.094l-3.047,8.094H200.195z"/>
	<path style="&st7;" d="M218.192,425.992h10.426l11.854,14.711v-14.711h11.045v33.325h-9.902l-12.378-15.377v15.377h-11.045V425.992
		z"/>
	<path style="&st7;" d="M256.899,442.75v-0.096c0-8.902,6.332-17.233,16.472-17.233c5.094,0,8.236,1.523,11.569,4.284l-0.667,0.81
		c-3.095-2.522-6.189-4.142-10.95-4.142c-9.378,0-15.377,7.998-15.377,16.234v0.095c0,8.665,5.713,16.234,15.425,16.234
		c4.951,0,9.046-2.19,11.854-4.57v-10.712h-12.283v-1.047h13.33v12.14c-3.142,2.856-7.57,5.142-12.949,5.142
		C262.897,459.889,256.899,452.033,256.899,442.75z"/>
	<path style="&st7;" d="M308.316,425.754h0.905l16.043,33.563h-1.143l-4.761-9.997h-21.233l-4.761,9.997h-1.095L308.316,425.754z
		 M318.886,448.367l-10.141-21.232l-10.141,21.232H318.886z"/>
	<path style="&st7;" d="M331.979,425.992h13.615c4.333,0,7.522,1.095,9.569,3.143c1.523,1.523,2.381,3.617,2.381,6.188v0.095
		c0,5.618-4.476,8.951-10.902,9.332l11.093,14.567h-1.285l-11.045-14.521h-12.379v14.521h-1.047V425.992z M345.071,443.845
		c7.713,0,11.426-3.665,11.426-8.379v-0.095c0-5.285-4.094-8.427-10.997-8.427h-12.474v16.9H345.071z"/>
	<path style="&st7;" d="M366.449,425.992h10.712c10.474,0,17.71,7.236,17.71,16.615v0.095c0,9.379-7.236,16.615-17.71,16.615
		h-10.712V425.992z M377.208,458.365c9.808,0,16.615-6.903,16.615-15.615v-0.096c0-8.76-6.855-15.71-16.71-15.71h-9.616v31.421
		H377.208z"/>
	<path style="&st7;" d="M403.299,425.992h0.904l25.327,31.611v-31.611h1v33.325h-0.904l-25.327-31.611v31.611h-1V425.992z"/>
	<path style="&st7;" d="M440.435,425.992h23.28v0.952h-22.233v15.14h20.186v0.951h-20.186v15.33h22.471v0.952h-23.518V425.992z"/>
	<path style="&st7;" d="M471.904,425.992h13.616c4.332,0,7.521,1.095,9.568,3.143c1.523,1.523,2.381,3.617,2.381,6.188v0.095
		c0,5.618-4.476,8.951-10.902,9.332l11.093,14.567h-1.286l-11.045-14.521h-12.377v14.521h-1.048V425.992z M484.996,443.845
		c7.713,0,11.426-3.665,11.426-8.379v-0.095c0-5.285-4.094-8.427-10.997-8.427h-12.473v16.9H484.996z"/>
</g>
<g>
	<rect x="397.362" y="362.878" style="&st22;" width="8.101" height="15.071"/>
	<line style="&st22;" x1="397.362" y1="370.414" x2="406.036" y2="370.414"/>
</g>
<g>
	<rect x="379.726" y="362.878" style="&st22;" width="8.101" height="15.071"/>
	<line style="&st22;" x1="379.726" y1="373.414" x2="388.4" y2="373.414"/>
</g>
<g>
	<rect x="397.362" y="339.731" style="&st22;" width="8.101" height="15.071"/>
	<line style="&st22;" x1="397.362" y1="345.266" x2="406.036" y2="345.266"/>
</g>
<g>
	<rect x="379.726" y="339.731" style="&st22;" width="8.101" height="15.071"/>
	<line style="&st22;" x1="379.726" y1="344.266" x2="388.4" y2="344.266"/>
</g>
<path style="&st7;" d="M374.265,375.922c0,1.105-0.895,2-2,2h-9.333c-1.105,0-2-0.895-2-2v-3.333c0-1.105,0.895-2,2-2h9.333
	c1.105,0,2,0.895,2,2V375.922z"/>
<g>
</g>
<g>
</g>
<g>
</g>
<g>
</g>
<g>
</g>
<g>
</g>
</svg>
